<svg xmlns="http://www.w3.org/2000/svg" xmlns:xlink="http://www.w3.org/1999/xlink" xml:space="preserve" version="1.1" style="shape-rendering:geometricPrecision;text-rendering:geometricPrecision;image-rendering:optimizeQuality;" viewBox="0 0 428.34 535.425" x="0px" y="0px" fill-rule="evenodd" clip-rule="evenodd"><defs><style type="text/css">
   
    .fil1 {fill:black}
    .fil0 {fill:black;fill-rule:nonzero}
   
  </style></defs><g><path class="fil0" d="M214.19 0c59.12,0 112.68,23.98 151.45,62.74 38.72,38.73 62.7,92.29 62.7,151.45 0,59.12 -23.98,112.68 -62.7,151.45 -38.77,38.72 -92.33,62.7 -151.45,62.7 -59.16,0 -112.72,-23.98 -151.49,-62.7 -38.72,-38.77 -62.7,-92.33 -62.7,-151.45 0,-59.16 23.98,-112.72 62.7,-151.45 38.77,-38.76 92.33,-62.74 151.49,-62.74zm-142.03 347.15l0 -6.81c0,-123 284.02,-122.57 284.02,0l0 6.81c32.58,-34.76 52.54,-81.54 52.54,-132.96 0,-53.75 -21.79,-102.37 -56.98,-137.59 -35.22,-35.19 -83.84,-56.98 -137.55,-56.98 -53.75,0 -102.37,21.79 -137.59,56.98 -35.19,35.22 -56.98,83.84 -56.98,137.59 0,51.42 19.96,98.2 52.54,132.96z"/><path class="fil1" d="M214.17 59.82c46.28,0 83.79,37.51 83.79,83.78 0,46.28 -37.51,83.79 -83.79,83.79 -46.27,0 -83.79,-37.51 -83.79,-83.79 0,-46.27 37.52,-83.78 83.79,-83.78z"/></g></svg>